<?xml version="1.0" encoding="utf-8"?>
<!-- Generator: Adobe Illustrator 22.1.0, SVG Export Plug-In . SVG Version: 6.00 Build 0)  -->
<svg version="1.1" id="Layer_1" xmlns="http://www.w3.org/2000/svg" xmlns:xlink="http://www.w3.org/1999/xlink" x="0px" y="0px"
	 viewBox="0 0 283.5 113.4" style="enable-background:new 0 0 283.5 113.4;" xml:space="preserve">
<style type="text/css">
	.st0{fill:url(#SVGID_1_);}
	.st1{fill:url(#SVGID_2_);}
	.st2{opacity:0.6;fill:url(#SVGID_3_);enable-background:new    ;}
</style>
<g>
	<g>
		
			<linearGradient id="SVGID_1_" gradientUnits="userSpaceOnUse" x1="179.7323" y1="694.9929" x2="259.8372" y2="694.9929" gradientTransform="matrix(1 0 0 1 0 -642)">
			<stop  offset="6.787590e-02" style="stop-color:#FEDD10"/>
			<stop  offset="0.8329" style="stop-color:#F7963F"/>
		</linearGradient>
		<path class="st0" d="M252.3,36l-10.2,10.3V30.7c0-2.2-2.2-4.5-4.5-4.5h-53.4c-2.2,0-4.5,2.2-4.5,4.5v44.5c0,2.2,2.2,4.5,4.5,4.5
			h53.4c2.2,0,4.5-2.2,4.5-4.5V59.6l10.2,10.2c2.7,2.7,7.6,0.9,7.6-3.1V39.1C259.9,35.1,255,33.4,252.3,36z M210.9,65.8
			c-7.1,0-12.5-5.8-12.5-12.5c0-7.1,5.8-12.5,12.5-12.5c7.1,0,12.5,5.8,12.5,12.5S218,65.8,210.9,65.8z"/>
		
			<linearGradient id="SVGID_2_" gradientUnits="userSpaceOnUse" x1="183.3407" y1="701.6929" x2="263.4456" y2="701.6929" gradientTransform="matrix(1 0 0 1 0 -642)">
			<stop  offset="3.968130e-02" style="stop-color:#38B34A"/>
			<stop  offset="0.836" style="stop-color:#2A3B8F"/>
		</linearGradient>
		<path class="st1" d="M255.8,42.7l-10.2,10.2V37.4c0-2.2-2.2-4.5-4.5-4.5h-53.4c-2.2,0-4.5,2.2-4.5,4.5v44.5c0,2.2,2.2,4.5,4.5,4.5
			h53.4c2.2,0,4.5-2.2,4.5-4.5V66.3l10.2,10.2c2.7,2.7,7.6,0.9,7.6-3.1V45.8C263.4,41.8,258.5,40,255.8,42.7z M214.5,72.5
			c-7.1,0-12.5-5.8-12.5-12.5c0-7.1,5.8-12.5,12.5-12.5c7.1,0,12.5,5.8,12.5,12.5S221.6,72.5,214.5,72.5z"/>
		
			<linearGradient id="SVGID_3_" gradientUnits="userSpaceOnUse" x1="179.7323" y1="689.0429" x2="250.9367" y2="689.0429" gradientTransform="matrix(1 0 0 1 0 -642)">
			<stop  offset="0.1717" style="stop-color:#28A8E0"/>
			<stop  offset="0.7863" style="stop-color:#E90E8B"/>
		</linearGradient>
		<path class="st2" d="M242.1,46.3V30.7c0-1.3-0.8-2.6-1.9-3.4l-7,7v-8h-49c-2.2,0-4.5,2.2-4.5,4.5v36.9h24.9
			c-1.6-2.1-2.6-4.8-2.6-7.6c0-7.1,5.8-12.5,12.5-12.5c7.1,0,12.5,5.8,12.5,12.5c0,2.8-1,5.4-2.6,7.6h4.4c2.2,0,4.5-2.2,4.5-4.5
			V47.6l10.2,10.2c2.7,2.7,7.6,0.9,7.6-3.1V37.4L242.1,46.3z"/>
	</g>
	<g>
		<path id="XMLID_11_" d="M151.2,67c0,4.9-2.1,9.6-5.9,12.8l5.5,6.3c5.6-4.8,8.8-11.8,8.8-19.2v-8.6h-8.4L151.2,67L151.2,67z"/>
		<g>
			<circle id="XMLID_7_" cx="87.3" cy="82.4" r="4.7"/>
			<path id="XMLID_6_" d="M97.1,77.7c-2.6,0-4.7,2.1-4.7,4.7s2.1,4.7,4.7,4.7c2.6,0,4.7-2.1,4.7-4.7C101.8,79.8,99.7,77.7,97.1,77.7
				z"/>
		</g>
		<g>
			<circle id="XMLID_2_" cx="64.3" cy="48.5" r="4.7"/>
			<path id="XMLID_1_" d="M74.1,43.7c-2.6,0-4.7,2.1-4.7,4.7s2.1,4.7,4.7,4.7c2.6,0,4.7-2.1,4.7-4.7C78.8,45.9,76.7,43.7,74.1,43.7z
				"/>
		</g>
		<polygon points="145.8,65.2 145.8,33 137.4,33 137.4,73.6 145.8,73.6 		"/>
		<g>
			<path d="M132.8,65.1L132.8,65.1v-6.4c0-8.2-6.7-14.9-14.9-14.9S103,50.5,103,58.7s6.7,14.9,15,14.9l5.4-0.1
				c-1,2.5-2.6,4.7-4.6,6.5l5.5,6.3c4-3.4,7.1-7.9,8-13C132.8,70,132.8,65.1,132.8,65.1z M124.5,65.1l-6.6,0.1
				c-3.6,0-6.6-2.9-6.6-6.6c0-3.6,2.9-6.6,6.6-6.6c3.6,0,6.6,2.9,6.6,6.6l0,0V65.1z"/>
		</g>
		<path d="M84.2,65.1h-1h-5.1v-6.6h-8.4v6.6H49.8v-6.4c0-8.2-6.7-14.9-14.9-14.9S20,50.5,20,58.7s6.7,14.9,15,14.9l5.4-0.1
			c-1,2.5-2.6,4.7-4.6,6.5l5.5,6.3c4-3.4,6.7-8,8-13h52.6v-8.2H84.2z M41.5,65.1l-6.6,0.1c-3.6,0-6.6-2.9-6.6-6.6
			c0-3.6,2.9-6.6,6.6-6.6c3.6,0,6.6,2.9,6.6,6.6V65.1z"/>
	</g>
</g>
</svg>
